<svg width="88" height="83" viewBox="0 0 88 83" fill="none" xmlns="http://www.w3.org/2000/svg">
<g clip-path="url(#clip0_99_173)">
<path d="M86.762 10.2576H36.7007V73.4456H86.762V10.2576Z" fill="white"/>
<path d="M33.7282 8.11017C31.7606 8.11017 30.1753 9.68657 30.1753 11.6487V71.3393C30.1753 73.2977 31.7606 74.8779 33.7282 74.8779H84.4472C86.4148 74.8779 88.0001 73.2977 88.0001 71.3393V11.6487C88.0001 9.68657 86.4148 8.11017 84.4472 8.11017H33.7282ZM33.0161 11.0421H85.1293V71.9122H33.0161V11.0421Z" fill="#2A5699"/>
<path d="M79.0488 17.3021H42.5391V21.0872H79.0488V17.3021Z" fill="#2A5699"/>
<path d="M79.0488 35.1461H42.5391V38.9312H79.0488V35.1461Z" fill="#2A5699"/>
<path d="M79.0488 26.2242H42.5391V30.0093H79.0488V26.2242Z" fill="#2A5699"/>
<path d="M79.0488 44.0681H42.5391V47.8531H79.0488V44.0681Z" fill="#2A5699"/>
<path d="M79.0488 53.2603H42.5391V57.0454H79.0488V53.2603Z" fill="#2A5699"/>
<path d="M79.0488 62.1823H42.5391V65.9673H79.0488V62.1823Z" fill="#2A5699"/>
<path d="M50.0631 83V0L0 8.29775V74.6985L50.0631 83Z" fill="url(#paint0_linear_99_173)"/>
<path d="M8.65967 29.0519L13.5318 53.8029C15.2735 53.9595 17.0195 54.0632 18.7675 54.1137L22.3354 37.8364C22.4835 37.3197 22.5475 36.7552 22.609 35.6721C22.676 36.7639 22.7189 37.1567 22.8788 37.8364L26.4055 54.5667L32.1097 54.9075L38.4397 27.2808L32.8555 27.614L29.6436 45.947C29.4855 46.6918 29.3752 47.4437 29.3738 48.1075C29.4285 47.5596 29.3369 46.8253 29.1039 45.947L25.536 28.0484L20.4952 28.3479L16.6537 45.947C16.5512 46.2926 16.4515 46.9157 16.3839 47.5683C16.3578 47.0074 16.2703 46.2636 16.114 45.404L13.5168 28.7636L8.65967 29.0519Z" fill="white"/>
</g>
<defs>
<linearGradient id="paint0_linear_99_173" x1="50.0624" y1="41.5004" x2="0.00139645" y2="41.5004" gradientUnits="userSpaceOnUse">
<stop stop-color="#285294"/>
<stop offset="1" stop-color="#2C5A9E"/>
</linearGradient>
<clipPath id="clip0_99_173">
<rect width="88" height="83" fill="white"/>
</clipPath>
</defs>
</svg>
