<svg width="14" height="14" viewBox="0 0 14 14" fill="none" xmlns="http://www.w3.org/2000/svg">
<path d="M0.382812 1.69531C0.382812 1.69531 0.446615 1.63151 0.574219 1.50391C0.701823 1.3763 0.947917 1.3125 1.3125 1.3125C1.67708 1.3125 1.98698 1.4401 2.24219 1.69531C2.4974 1.95052 2.625 2.26042 2.625 2.625C2.625 2.98958 2.4974 3.29948 2.24219 3.55469C1.98698 3.8099 1.67708 3.9375 1.3125 3.9375C0.947917 3.9375 0.638021 3.8099 0.382812 3.55469C0.127604 3.29948 0 2.98958 0 2.625C0 2.26042 0.127604 1.95052 0.382812 1.69531ZM0.382812 6.07031C0.382812 6.07031 0.446615 6.00651 0.574219 5.87891C0.701823 5.7513 0.947917 5.6875 1.3125 5.6875C1.67708 5.6875 1.98698 5.8151 2.24219 6.07031C2.4974 6.32552 2.625 6.63542 2.625 7C2.625 7.36458 2.4974 7.67448 2.24219 7.92969C1.98698 8.1849 1.67708 8.3125 1.3125 8.3125C0.947917 8.3125 0.638021 8.1849 0.382812 7.92969C0.127604 7.67448 0 7.36458 0 7C0 6.63542 0.127604 6.32552 0.382812 6.07031ZM0.382812 10.4453C0.382812 10.4453 0.446615 10.3815 0.574219 10.2539C0.701823 10.1263 0.947917 10.0625 1.3125 10.0625C1.67708 10.0625 1.98698 10.1901 2.24219 10.4453C2.4974 10.7005 2.625 11.0104 2.625 11.375C2.625 11.7396 2.4974 12.0495 2.24219 12.3047C1.98698 12.5599 1.67708 12.6875 1.3125 12.6875C0.947917 12.6875 0.638021 12.5599 0.382812 12.3047C0.127604 12.0495 0 11.7396 0 11.375C0 11.0104 0.127604 10.7005 0.382812 10.4453ZM13.5625 10.5C13.6901 10.5 13.7949 10.541 13.877 10.623C13.959 10.7051 14 10.8099 14 10.9375V11.8125C14 11.9401 13.959 12.0449 13.877 12.127C13.7949 12.209 13.6901 12.25 13.5625 12.25H4.8125C4.6849 12.25 4.58008 12.209 4.49805 12.127C4.41602 12.0449 4.375 11.9401 4.375 11.8125V10.9375C4.375 10.8099 4.41602 10.7051 4.49805 10.623C4.58008 10.541 4.6849 10.5 4.8125 10.5H13.5625ZM13.5625 1.75C13.6901 1.75 13.7949 1.79102 13.877 1.87305C13.959 1.95508 14 2.0599 14 2.1875V3.0625C14 3.1901 13.959 3.29492 13.877 3.37695C13.7949 3.45898 13.6901 3.5 13.5625 3.5H4.8125C4.6849 3.5 4.58008 3.45898 4.49805 3.37695C4.41602 3.29492 4.375 3.1901 4.375 3.0625V2.1875C4.375 2.0599 4.41602 1.95508 4.49805 1.87305C4.58008 1.79102 4.6849 1.75 4.8125 1.75H13.5625ZM13.5625 6.125C13.6901 6.125 13.7949 6.16602 13.877 6.24805C13.959 6.33008 14 6.4349 14 6.5625V7.4375C14 7.5651 13.959 7.66992 13.877 7.75195C13.7949 7.83398 13.6901 7.875 13.5625 7.875H4.8125C4.6849 7.875 4.58008 7.83398 4.49805 7.75195C4.41602 7.66992 4.375 7.5651 4.375 7.4375V6.5625C4.375 6.4349 4.41602 6.33008 4.49805 6.24805C4.58008 6.16602 4.6849 6.125 4.8125 6.125H13.5625Z" fill="#333333"/>
</svg>
